<svg xmlns="http://www.w3.org/2000/svg" viewBox="0 0 64 64">
  <defs>
    <linearGradient id="primary-gradient" x1="0%" y1="0%" x2="100%" y2="100%">
      <stop offset="0%" stop-color="#3b6fef" />
      <stop offset="100%" stop-color="#6366f1" />
    </linearGradient>
  </defs>
  <!-- Background matches hs-logo-icon-bg -->
  <rect width="64" height="64" rx="20" fill="url(#primary-gradient)"/>
  
  <!-- Hand icon matches lucide-hand -->
  <g stroke="#ffffff" stroke-width="4.5" stroke-linecap="round" stroke-linejoin="round" fill="none" transform="translate(13, 13) scale(1.6)">
    <path d="M18 11V6a2 2 0 0 0-4 0v4"/>
    <path d="M14 10V4a2 2 0 0 0-4 0v6"/>
    <path d="M10 10.5V3a2 2 0 0 0-4 0v9"/>
    <path d="m15.5 13 4.5-5.5a2 2 0 0 1 3 0v6.5a8 8 0 0 1-16 0V12a2 2 0 0 1 3 0v-.5"/>
  </g>
</svg>
